<?xml version="1.0"?>
<svg xmlns="http://www.w3.org/2000/svg" viewBox="0 0 50 50">
    <path d="M 4.8457031 6 C 3.2767031 6 2 7.2975781 2 8.8925781 L 2 43 C 2 43.553 2.448 44 3 44 L 25.365234 44 C 25.059234 43.357 24.794891 42.692 24.587891 42 L 4 42 L 4 20 L 46 20 L 46 26.519531 C 46.719 27.021531 47.389 27.586938 48 28.210938 L 48 8.8925781 C 48 7.2975781 46.723297 6 45.154297 6 L 4.8457031 6 z M 4.8457031 8 L 45.154297 8 C 45.621297 8 46 8.3995781 46 8.8925781 L 46 18 L 4 18 L 4 8.8925781 C 4 8.3995781 4.3787031 8 4.8457031 8 z M 19 10 L 19 11 L 19 16 L 43 16 L 43 10 L 19 10 z M 8 11 A 2 2 0 0 0 6 13 A 2 2 0 0 0 8 15 A 2 2 0 0 0 10 13 A 2 2 0 0 0 8 11 z M 14 11 A 2 2 0 0 0 12 13 A 2 2 0 0 0 14 15 A 2 2 0 0 0 16 13 A 2 2 0 0 0 14 11 z M 21 12 L 41 12 L 41 14 L 21 14 L 21 12 z M 38 26 C 31.384428 26 26 31.384428 26 38 C 26 44.615572 31.384428 50 38 50 C 44.615572 50 50 44.615572 50 38 C 50 31.384428 44.615572 26 38 26 z M 38 28 C 38.180732 28 38.437682 28.09556 38.798828 28.515625 C 39.159974 28.935692 39.554657 29.645912 39.888672 30.564453 C 40.04607 30.997299 40.188772 31.482968 40.318359 32 L 35.681641 32 C 35.811228 31.482968 35.95393 30.997299 36.111328 30.564453 C 36.445343 29.645912 36.840026 28.935692 37.201172 28.515625 C 37.562318 28.095558 37.819268 28 38 28 z M 34.824219 28.521484 C 34.60801 28.937897 34.411136 29.389395 34.232422 29.880859 C 33.998951 30.522905 33.806227 31.244008 33.634766 32 L 30.001953 32 C 31.206807 30.398513 32.880324 29.169997 34.824219 28.521484 z M 41.175781 28.521484 C 43.119676 29.169997 44.793193 30.398513 45.998047 32 L 42.365234 32 C 42.193773 31.244008 42.001049 30.522905 41.767578 29.880859 C 41.588864 29.389395 41.39199 28.937897 41.175781 28.521484 z M 28.833984 34 L 33.275391 34 C 33.145451 34.949274 33.068309 35.956169 33.035156 37 L 28.054688 37 C 28.159485 35.941738 28.426361 34.933509 28.833984 34 z M 35.289062 34 L 40.710938 34 C 40.849461 34.932424 40.926032 35.948395 40.962891 37 L 35.037109 37 C 35.073968 35.948395 35.150539 34.932424 35.289062 34 z M 42.724609 34 L 47.166016 34 C 47.573639 34.933509 47.840515 35.941738 47.945312 37 L 42.964844 37 C 42.931691 35.956169 42.854549 34.949274 42.724609 34 z M 28.054688 39 L 33.035156 39 C 33.068309 40.043831 33.145451 41.050726 33.275391 42 L 28.833984 42 C 28.426361 41.066491 28.159485 40.058262 28.054688 39 z M 35.037109 39 L 40.962891 39 C 40.926032 40.051605 40.849461 41.067576 40.710938 42 L 35.289062 42 C 35.150539 41.067576 35.073968 40.051605 35.037109 39 z M 42.964844 39 L 47.945312 39 C 47.840515 40.058262 47.573639 41.066491 47.166016 42 L 42.724609 42 C 42.854549 41.050726 42.931691 40.043831 42.964844 39 z M 30.001953 44 L 33.634766 44 C 33.806227 44.755992 33.998951 45.477095 34.232422 46.119141 C 34.411136 46.610605 34.60801 47.062103 34.824219 47.478516 C 32.880324 46.830003 31.206807 45.601487 30.001953 44 z M 35.681641 44 L 40.318359 44 C 40.188772 44.517032 40.04607 45.002701 39.888672 45.435547 C 39.554657 46.354088 39.159974 47.064308 38.798828 47.484375 C 38.437682 47.904442 38.180732 48 38 48 C 37.819268 48 37.562318 47.904442 37.201172 47.484375 C 36.840026 47.064308 36.445343 46.354088 36.111328 45.435547 C 35.95393 45.002701 35.811228 44.517032 35.681641 44 z M 42.365234 44 L 45.998047 44 C 44.793193 45.601487 43.119676 46.830003 41.175781 47.478516 C 41.39199 47.062103 41.588864 46.610605 41.767578 46.119141 C 42.001049 45.477095 42.193773 44.755992 42.365234 44 z"/>
</svg>
